# xmcd
#
# Track frame offsets:
#	150
#	25319
#	42441
#	61661
#	77250
#	94280
#	111973
#	132233
#	158176
#	181500
#	201808
#	221722
#	249438
#	269375
#	291600
#	314182
#	337106
#
# Disc length: 4771
#
# Revision: 3
# Processed by: cddbd v1.5.1PL0 Copyright (c) Steve Scherf et al.
# Submitted via: CDex 1.51
# Normalized: r2:DSETVAR1
#
DISCID=0012a111
DTITLE=Various Artist - Smooth Jazz Cafe 4
DYEAR=2002
DGENRE=Jazz
TTITLE0=Chris Botti,Shawn Colvin - All Would Envy
TTITLE1=Kenny Rankin - Round Midnight
TTITLE2=Jimmy Commers,Coolio - Lowdown
TTITLE3=Kayah , Cesaria Evora - Embarcacao
TTITLE4=Mietek Szczesniak - Paulinho Garcia - Spoza Nas
TTITLE5=Ella Fitzgerald , De Phazz remix - Wait Till You See Him
TTITLE6=Miles Davis - Human Nature
TTITLE7=Randy Crawford - When I Get Over You
TTITLE8=Will Downing - I Can't Help It
TTITLE9=Norman Brown - Just Chillin'
TTITLE10=Anita Baker - Sweet Love
TTITLE11=Michael Franks - This Must Be Paradise
TTITLE12=Basia ,Taro Hakase - So Nice
TTITLE13=Woobie Doobie - Mr Jeff
TTITLE14=Jeff Golub , Sue Ann Carwell - If I Ever Lose This Heaven
TTITLE15=Gare du Nord - Pablo's Blues
TTITLE16=Richard Bona - Pat Metheny - Reverence
EXTD=YEAR: 2002
EXTT0=
EXTT1=
EXTT2=
EXTT3=
EXTT4=
EXTT5=
EXTT6=
EXTT7=
EXTT8=
EXTT9=
EXTT10=
EXTT11=
EXTT12=
EXTT13=
EXTT14=
EXTT15=
EXTT16=
PLAYORDER=
